<?xml version="1.0" encoding="UTF-8"?>
<!DOCTYPE svg PUBLIC "-//W3C//DTD SVG 1.1//EN" "http://www.w3.org/Graphics/SVG/1.1/DTD/svg11.dtd">
<svg xmlns="http://www.w3.org/2000/svg" version="1.1" width="2560px" height="2560px" style="shape-rendering:geometricPrecision; text-rendering:geometricPrecision; image-rendering:optimizeQuality; fill-rule:evenodd; clip-rule:evenodd" xmlns:xlink="http://www.w3.org/1999/xlink">
<g><path style="opacity:1" fill="#000000" d="M -0.5,-0.5 C 852.833,-0.5 1706.17,-0.5 2559.5,-0.5C 2559.5,852.833 2559.5,1706.17 2559.5,2559.5C 1706.17,2559.5 852.833,2559.5 -0.5,2559.5C -0.5,1706.17 -0.5,852.833 -0.5,-0.5 Z"/></g>
<g><path style="opacity:1" fill="#95e000" d="M 394.5,151.5 C 621.167,151.5 847.833,151.5 1074.5,151.5C 1074.5,903.5 1074.5,1655.5 1074.5,2407.5C 847.833,2407.5 621.167,2407.5 394.5,2407.5C 394.5,1655.5 394.5,903.5 394.5,151.5 Z"/></g>
<g><path style="opacity:1" fill="#95e000" d="M 1182.5,2407.5 C 1182.5,2280.5 1182.5,2153.5 1182.5,2026.5C 1284,2026.83 1385.33,2026.5 1486.5,2025.5C 1486.5,1744.17 1486.5,1462.83 1486.5,1181.5C 1384.83,1181.5 1283.17,1181.5 1181.5,1181.5C 1181.33,1112.83 1181.5,1044.17 1182,975.5C 1248.17,908.667 1314.33,841.833 1380.5,775C 1505.17,774.333 1629.83,774.333 1754.5,775C 1890.67,910.5 2026.83,1046 2163,1181.5C 2163.67,1454.5 2163.67,1727.5 2163,2000.5C 2026.83,2136 1890.67,2271.5 1754.5,2407C 1563.83,2407.5 1373.17,2407.67 1182.5,2407.5 Z"/></g>
<g><path style="opacity:1" fill="#161e00" d="M 1181.5,1181.5 C 1283.17,1181.5 1384.83,1181.5 1486.5,1181.5C 1486.5,1462.83 1486.5,1744.17 1486.5,2025.5C 1486.17,2025.5 1485.83,2025.5 1485.5,2025.5C 1485.5,1744.5 1485.5,1463.5 1485.5,1182.5C 1384,1182.83 1282.67,1182.5 1181.5,1181.5 Z"/></g>
<g><path style="opacity:1" fill="#578500" d="M 1485.5,2025.5 C 1485.83,2025.5 1486.17,2025.5 1486.5,2025.5C 1385.33,2026.5 1284,2026.83 1182.5,2026.5C 1182.5,2153.5 1182.5,2280.5 1182.5,2407.5C 1181.5,2280.33 1181.17,2153 1181.5,2025.5C 1282.83,2025.5 1384.17,2025.5 1485.5,2025.5 Z"/></g>
</svg>
